<svg width="0" height="0" class="hidden">

<symbol xmlns="http://www.w3.org/2000/svg" id="logo-neoline">
    <path class="neoLine" d="M4.701 21.098v31.137l26.966 15.569 26.965-15.569V21.098L31.667 5.529z"></path>
  </symbol>
  <symbol viewBox="0 0 253 41" xmlns="http://www.w3.org/2000/svg" id="logo-gab">
    <g fill="none">
      <path d="M247.61 33.7h-4.9l4.6-24.2h5l-4.7 24.2zm-6-18.8c1.6 0 2.9-1 2.9-2.7 0-1.5-1-2.4-2.5-2.4s-2.8 1.1-2.8 2.7c0 1.5 1 2.4 2.3 2.4h.1zm-1.4 18.8l3.2-16.7h-4.9l-3.2 16.7h4.9zm-18-1l1.2-3.4c.9.5 2.7 1.1 4.3 1.1 1.4 0 2.1-.6 2.1-1.5 0-.8-.5-1.4-2-2.1-2-1-3.6-2.4-3.6-4.4 0-3.5 3.1-5.8 7.4-5.8 1.9 0 3.5.4 4.3.9l-1.2 3.4c-.7-.3-1.9-.7-3.3-.7-1.3 0-2.2.6-2.2 1.5 0 .7.7 1.2 2 1.9 1.9.9 3.8 2.2 3.8 4.6 0 3.8-3.3 5.9-7.7 5.8-2.2 0-4.1-.6-5.1-1.3zm-5.1-8.4c-.8 4.1-2.6 5.8-4 5.8s-2.1-1.1-2.1-2.8c0-3.1 2.4-6.9 5.6-6.9.5 0 .9 0 1.3.1l-.8 3.8zm3.9 9.4c-.1-2.1.3-5.4.7-7.5l1.7-8.7c-1.4-.5-3.5-.9-5.5-.9-8.2 0-12 6-12 11.7 0 3.4 2 5.8 5.1 5.8 1.9 0 4.1-1 5.6-3.7h.1c-.1 1.2-.2 2.3-.2 3.3h4.5zm-21.2 0h-5l1.9-9.9c.5-2.6.7-5.4.9-6.8h4.2c-.1 1.1-.1 2.3-.3 3.4h.1c1.2-2.2 3.1-3.8 5.4-3.8.3 0 .6 0 .9.1l-.9 4.7h-.8c-3.2 0-4.7 2.8-5.3 6.1l-1.1 6.2zm-16.3-10.3h1.6c2.3 0 4.2.7 4.2 3 0 2.5-2.4 3.6-5.1 3.6-.7 0-1.3 0-1.9-.1l1.2-6.5zm1.8-8.9c.4-.1 1.1-.1 2-.1 1.9 0 3.2.7 3.2 2.3 0 2-1.8 3.1-4.6 3.1h-1.6l1-5.3zm-8.5 18.9c1.2.3 3.3.5 5.9.5 3.8 0 6.7-.6 8.7-1.9 1.8-1.2 3.1-3 3.1-5.5s-1.4-4.3-3.6-5v-.1c2.5-.7 4.6-2.5 4.6-5.4 0-2-1.1-3.5-2.6-4.3-1.6-.9-3.3-1.2-5.8-1.2-2.2 0-4.4.2-6 .6l-4.3 22.3zm-12.3-13c-2.8 0-4.3 4.1-4.3 6.7 0 1.9 1 3.2 2.8 3.2 2.6 0 4.1-3.9 4.1-6.8 0-1.5-.7-3.1-2.6-3.1zm.6-3.8c4.5 0 7.1 3.1 7.1 6.9 0 6.1-4.2 10.6-10 10.6-4.2 0-7.1-2.8-7.1-7 0-5.7 4.1-10.5 10-10.5zm-16.3 8.8c-.7 3.2-2.4 4.7-3.8 4.7s-2.3-1.1-2.3-3.1c0-3.2 2.1-6.6 5-6.6.8 0 1.6.2 2 .5l-.9 4.5zm3.1-15.9l-1.5 7.5c-.7-.3-1.6-.4-2.3-.4-6.4 0-10.6 5.4-10.6 11.2 0 4 2.4 6.3 5.2 6.3 2 0 4-.9 5.5-3.1h.1l-.3 2.7h4.6c0-2 .3-4.4.8-6.5l3.4-17.7h-4.9zm-32.5 23.2c1 .7 2.9 1.3 5.1 1.3 4.4.1 7.7-2 7.7-5.8 0-2.4-1.9-3.7-3.8-4.6-1.3-.7-2-1.2-2-1.9 0-.9.8-1.5 2.2-1.5 1.4 0 2.6.4 3.3.7l1.2-3.4c-.8-.5-2.4-.9-4.3-.9-4.3 0-7.4 2.3-7.4 5.8 0 2 1.6 3.4 3.6 4.4 1.5.7 2 1.3 2 2.1 0 .9-.7 1.5-2.1 1.5-1.6 0-3.4-.6-4.3-1.1l-1.2 3.4zm-5.1-8.4l.8-3.8c-.4-.1-.8-.1-1.4-.1-3.1 0-5.5 3.8-5.5 6.9 0 1.7.7 2.8 2 2.8 1.5 0 3.3-1.7 4.1-5.8zm3.9 9.4h-4.5c0-1 .1-2.1.2-3.3h-.1c-1.5 2.7-3.7 3.7-5.6 3.7-3.1 0-5.1-2.4-5.1-5.8 0-5.7 3.8-11.7 12-11.7 2 0 4.1.4 5.5.9l-1.7 8.7c-.4 2.1-.8 5.4-.7 7.5zM98.81 17l-1.4 7.8c-.7 3.3-2.4 5.3-4.1 5.3-1.2 0-1.7-.9-1.7-1.9 0-.7.1-1.5.3-2.3l1.7-8.9h-4.9l-1.8 9.3c-.3 1.2-.4 2.2-.4 3.1 0 3.2 1.6 4.7 4.4 4.7 2 0 4-1 5.7-3.1h.1l-.3 2.7h4.3c.2-1.5.5-3.3.9-5.4l2.1-11.3h-4.9zm-18.9 8.2c-.5 2.8-2.1 4.6-3.8 4.6-1.5 0-2.2-1.3-2.2-3 0-3.1 2.1-6.4 5.1-6.4.7 0 1.4.1 1.8.3l-.9 4.5zm-11.8 14.5c1.2.7 3.2 1.1 5.5 1.1 2.2 0 4.6-.4 6.5-1.9 1.9-1.6 2.9-4.3 3.5-7.4l2.5-13.7c-1.8-.7-3.8-1.2-6.2-1.2-7.3 0-11.3 5.5-11.2 11 0 3.3 2 5.9 5.4 5.9 1.9 0 3.5-.7 4.8-2.4l-.2 1.4c-.8 3.3-2.6 4.4-5.1 4.4-1.4 0-3.4-.4-4.3-.9l-1.2 3.7zm-5.2-34.5l-3.2 4.3h4.1l4.6-4.3h-5.5zM57.11 24l2.3-5c.6-1.3 1.2-3.1 1.8-4.5h.1c.1 1.4.2 3.3.3 4.5l.5 5h-5zm5.2 3.7l.4 6h5.2l-2.7-23h-6.3l-11.3 23h5.3l2.7-6h6.7z"
        fill="#224870"></path>
      <path d="M42.4 29.1c.9-1.9 1.4-3.9 1.4-6 0-1.8-.4-3.7-1-5.4-.7-1.7-1.6-3.3-2.7-4.7l-.5-.5v.7c0 10.9-8.9 19.7-19.8 19.7S0 23.2 0 12.3C0 27 11.9 38.8 26.6 38.8c1.2 0 2.3-.1 3.4-.3 3.1-.6 6.1-2.1 8.5-4.3 1.7-1.5 3-3.2 3.9-5.1M34.8 7.6c-1-1.1-2.2-1.9-3.5-2.5-1.2-.5-2.5-.8-3.8-.8-1.2-.1-2.4.1-3.6.5-.2 0-.4.1-.5.1.1.1.3.2.5.2C30.8 8 34.1 16 31.1 22.9c-2.9 6.9-11.4 9.9-18.4 7 9.4 3.9 20.1-.5 24.1-9.8.3-.7.5-1.4.7-2.2.4-2.1.2-4.4-.5-6.5-.5-1.5-1.3-2.7-2.2-3.8M24.6 8.9c-1-.2-1.9-.3-2.9-.1-.8.1-1.7.4-2.4.9-.7.4-1.4 1-1.9 1.6-.1.1-.2.2-.2.3.1 0 .2-.1.3-.1 5-.9 9.8 2.4 10.7 7.4.9 5-2.8 9.8-7.8 10.7 6.7-1.2 11.2-7.6 10-14.3-.1-.5-.3-1-.4-1.5-.6-1.4-1.5-2.6-2.8-3.5-.8-.7-1.7-1.1-2.6-1.4"
        fill="#003A6E"></path>
      <path d="M82.57 1.7c.8 0 1.5.1 2.1.4l.3.1.6-1.6-.2-.1c-.3-.2-1.3-.5-2.6-.5-1.7 0-3.3.5-4.5 1.5-1.3 1.2-2.1 2.9-2.1 4.7 0 .9.2 2.1 1.1 3.1.8.9 2 1.3 3.6 1.3 1.2 0 2.4-.2 3-.5l.2-.1 1.1-5.2h-4l-.4 1.6h2.1l-.4 2.4c-.4.1-.9.2-1.3.2-2 0-3-1-3-2.9 0-1.2.5-2.5 1.4-3.3.8-.7 1.9-1.1 3-1.1m9.23 1c-.7 0-1.3.3-1.9.9.1-.2.1-.3.1-.4v-.3h-1.7l-.1.2c-.1 1-.2 1.8-.3 2.5l-1 4.9h1.9l.7-3.3c.3-1.6 1.2-2.7 2.1-2.7h.3l.3.1.3-1.8-.3-.1h-.4zm16.5 0c-.8 0-1.6.3-2.3.9l.1-.7h-1.8v.2c-.1.7-.3 1.7-.4 2.5l-1.6 7.8h1.9l.6-2.9c.3.1.7.2 1.4.2 2.5 0 4.7-2.4 4.7-5.1 0-1.4-.7-2.9-2.6-2.9zm.6 3c0 1.7-1.3 3.4-2.7 3.4-.4 0-.8-.1-1.1-.2l.4-1.8c.3-1.7 1.4-2.8 2.3-2.8 1 0 1.1 1 1.1 1.4zm8.4-3c-2.5 0-4.5 2.2-4.5 4.8 0 1.9 1.3 3.2 3.2 3.2 2.8 0 4.5-2.5 4.5-4.7 0-1.7-1-3.3-3.2-3.3zm1.2 3.2c0 1.5-1 3.2-2.3 3.2-.9 0-1.4-.6-1.4-1.7 0-.9.3-1.9.9-2.5.3-.3.8-.6 1.4-.6 1.4 0 1.4 1.4 1.4 1.6zm-19.8.8c-.3 1.4-1.4 2.4-2.2 2.4-.6 0-.8-.3-.8-1 0-.2 0-.5.1-.9l.9-4.3h-2l-.8 4.2c-.1.5-.2.9-.2 1.2 0 1.5.9 2.4 2.3 2.4.8 0 1.6-.3 2.2-.9l-.1.7h1.8v-.2c.1-.7.2-1.4.4-2.1l1.1-5.3h-2l-.7 3.8z"
        fill="#224870"></path>
    </g>
  </symbol>
  <symbol version="1" xmlns="http://www.w3.org/2000/svg" viewBox="0 0 3326 1090" id="logo-neo">
    <path d="M1777 412v412h60l.2-34.9.3-34.9 7 8.5c3.9 4.7 11.2 12.6 16.4 17.5 29.3 28 60.1 42.7 101.6 48.4 18.2 2.5 56.3 2.5 73 0 50.3-7.4 88.3-27 114.6-59.2 31.7-38.8 50.1-91.5 57.4-164.5 2.2-21.4 3-73.9 1.6-97.4-5.6-93-28-156.6-70-198.6-25.8-25.7-58.5-40.8-102.6-47.5-14.7-2.2-55.4-2.5-71-.5-50.4 6.4-86.1 25.8-119.7 64.9L1837 336V0h-60v412zm236.1-99c27.2 2.8 50.4 10.8 68.9 23.8 8.7 6.1 24.4 22.1 30.3 31 26.5 39.7 37.7 92.7 37.7 177.7 0 42.4-2.4 71.1-8.1 100-11.6 58.4-35.6 96.2-73.8 115.9-29.4 15.2-69.1 20.2-107.5 13.6-64.9-11.1-103.2-56.3-117-138-4.9-28.9-6-46-6-92 0-45.8 1.1-63.1 5.9-91.6 7.9-46.6 22.8-79.8 46.5-103.4 10.2-10.2 18.8-16.4 31.5-22.7 24.5-12.3 58.7-17.6 91.6-14.3zM274.5 215.2c-44.6 4.5-88.7 24.1-119.2 53.2l-7.3 6.9V221H0v603h150.9l.4-191.3c.3-173.8.5-192 2-199.7 7-35.4 23.5-58.7 51.2-72.1 36.4-17.7 82.3-12.9 112.1 11.8 16.4 13.6 29 39.3 32.4 66.5.6 5.4 1 73.4 1 196.5V824h151l-.3-211.8-.3-211.7-2.2-14c-8.6-53.1-26.4-88.3-61.5-122.1-25.1-24.2-58.2-40.2-97.2-46.9-19.7-3.4-45.3-4.3-65-2.3zm541.5-.5c-94 6.8-164.7 53.1-205.4 134.3-12.9 25.8-20.9 49.6-27.6 81.5-13.9 67.3-10.9 156 7.5 220 26.9 93.8 88 151.8 181.5 172.1 50.2 11 115.8 10.9 166-.2 34.6-7.7 71.1-24.6 99.4-46.2 17-12.9 44.9-38.5 44.4-40.8-.2-.7-20.7-21.1-45.6-45.4l-45.3-44.2-8.2 7.4c-33.5 30.1-56.3 41.6-94.2 47.4-15.7 2.4-48.6 2.4-62 0-62.2-11.1-98-53.3-103.1-121.4l-.7-9.2H1100v-37.3c0-53-1.8-76.6-8-107.7-3.3-16.5-8.2-34.3-13.5-48.7-5.2-14.1-19.2-42-27.2-54.3-41.9-63.8-106.5-100.4-188.7-107-11.9-.9-35.9-1.1-46.6-.3zm41.9 126.8c35.9 5.8 63.1 26.8 79.1 60.8 8.2 17.4 11.8 32.1 13.5 55.4l.6 8.3H722.9l.6-7.3c2.5-30.3 7.8-48.3 20.2-69 5.6-9.3 19.1-24 27.8-30.2 7.4-5.4 20.8-11.9 29.5-14.5 16.7-5 39.1-6.3 56.9-3.5zm528.6-126.8c-107.2 7.4-190.9 72.3-218 169.2-10 36.1-13.9 74.2-13.9 138.1 0 41.6 1.1 62.8 4.4 89.6 8.9 70.5 34.1 121.3 79.5 160.2 36 30.9 79.9 49.8 132 56.8 18.2 2.5 58.9 2.4 77 0 68.6-9.3 123.2-38.6 163.1-87.6 26.9-33.1 42.5-73.1 49.3-127 7.3-57.4 6.4-144.8-2-196-8.9-54.5-28.4-95.4-62.6-131-23.7-24.8-53.8-44.4-86.7-56.5-34.1-12.6-81-18.6-122.1-15.8zm36.2 136.4c36.5 4 64.1 24.8 77.2 58.1 3.8 9.5 7.5 24.1 9.5 37.3 3.6 24 5.1 67.1 3.7 105-1.9 47.2-6.4 71.1-17.7 93.7-12.2 24.4-34.4 41.2-62.4 47.1-13.4 2.8-35 2.8-47.7-.1-42-9.5-67.2-40.1-75.2-91.2-3.7-23.5-5.3-64.8-4-105.9 1.4-46.7 6.1-72.3 17.4-95.3 12.4-25 38-43.6 65.7-47.7 4-.6 8.4-1.3 9.8-1.5 5.2-.7 14.4-.6 23.7.5zM2545 259.6c-31.6 2.4-60.1 10.2-81.5 22.5-18.7 10.7-38.7 27.8-53 45.2l-7 8.5-.3-34.9-.2-34.9h-60v824h60V753.5l2.8 3.5c6.6 8.6 19.3 21.9 27.6 29.2 28 24.4 56.6 37.2 95.1 42.4 18.3 2.5 56.5 2.5 73 0 66.9-9.9 108.7-38.8 138.4-95.7 18-34.5 28.3-74.6 34.3-133.4 1.7-16.7 1.7-90.8 0-109-5.1-54.4-14.9-93.6-32.2-129-28.7-58.8-72.4-90.2-139-100-11.2-1.6-46-2.7-58-1.9zm34.1 53.4c78.8 8 120.9 58.2 133.4 159 4 32.9 4.6 103.3 1 136.5-8.6 81.4-33.8 129.6-80.1 153.2-23 11.8-51.7 17.4-82 15.9-84.5-3.9-130.6-53.4-143.8-154.6-3.4-25.8-4.1-38.1-4-78.5 0-44.4 1.2-63.5 6-91.1 13.7-80.7 50.2-125.1 113.2-137.9 16.6-3.3 38.3-4.3 56.3-2.5zm503.9-53.4c-42 3.8-75.2 14.9-105.6 35.3-41.9 28.1-70.7 69.1-85.8 122.1-11 38.6-15.3 81.6-14.3 141 .9 51 4.8 82.1 14.9 117 21.7 75.4 76.6 130.3 148.7 148.4 38.8 9.8 82.4 9.8 121.2 0 56.1-14.1 104.6-52.6 131.2-104.1 15.9-30.9 25.6-67.4 30.4-114.3 2.2-22.1 2.5-92.7.5-114.5-3.7-39.7-10.3-70.5-20.9-97.5-28.7-73-88.4-120.1-166.8-131.6-9.8-1.4-44.6-2.6-53.5-1.8zm47.3 54.9c32.6 5.9 60.9 20.3 84 43 28.5 27.9 42.7 62.9 49.4 122 2.5 21.9 2.5 109.1 0 131-7.7 67.6-26.1 106.1-64.4 134.9-21.3 16-43 25.4-69.8 30.2-13.3 2.4-42 2.4-55.5.1-26-4.5-48.7-14.1-69.5-29.7-42.6-31.7-61.7-76.1-66.6-154.8-1.3-21.7-.6-93.5 1-109.2 4.3-39.3 12.2-68.7 24.7-91.7 11.8-21.8 30.6-41 53.9-55.3 18.2-11.2 41.2-19 65.2-22 9.6-1.2 37.2-.4 47.6 1.5z"></path>
  </symbol>
</svg>